<svg xmlns="http://www.w3.org/2000/svg" width="169" height="177" fill="none" viewBox="0 0 169 177">
  <g clip-path="url(#a)">
    <g style="mix-blend-mode:multiply">
      <path fill="#fff" d="M158.813-4.008H8.187C3.127-4.008-1 .012-1 4.967v118.082c0 3.373 1.902 6.422 4.964 7.965l75.209 37.976a9.503 9.503 0 0 0 4.222 1.01c1.465 0 2.91-.343 4.204-.991l75.418-37.976c3.062-1.543 4.983-4.611 4.983-7.984V4.967c0-4.955-4.128-8.975-9.187-8.975Z"/>
      <path fill="#E3E3E3" d="M157.615-2.865H8.967c-5.003 0-9.073 3.982-9.073 8.86v116.101c0 3.335 1.883 6.346 4.907 7.87l74.22 37.5a9.247 9.247 0 0 0 4.165.991 9.168 9.168 0 0 0 4.147-.991l74.428-37.5c3.024-1.524 4.908-4.535 4.908-7.87V5.996c0-4.879-4.071-8.861-9.073-8.861h.019Z"/>
      <path fill="#C6C6C6" d="M156.397-1.703H9.747C4.8-1.703.788 2.223.788 7.044v114.1c0 3.277 1.845 6.269 4.831 7.774l73.23 37.023c1.256.648 2.682.972 4.109.972a9.162 9.162 0 0 0 4.09-.972l73.439-37.023c2.986-1.505 4.85-4.478 4.85-7.774V7.044c0-4.821-4.013-8.747-8.94-8.747Z"/>
      <path fill="#AAA" d="M155.199-.54H10.508C5.658-.54 1.7 3.328 1.7 8.092V120.21c0 3.239 1.826 6.174 4.774 7.66l72.241 36.528a9.062 9.062 0 0 0 4.052.972 9.044 9.044 0 0 0 4.051-.953l72.45-36.547c2.949-1.486 4.775-4.421 4.775-7.679V8.091c0-4.763-3.957-8.631-8.826-8.631h-.019Z"/>
      <path fill="#8E8E8E" d="M153.982.622H11.287c-4.793 0-8.692 3.83-8.692 8.518v110.117c0 3.201 1.807 6.098 4.698 7.565l71.252 36.052a8.819 8.819 0 0 0 3.995.952 8.819 8.819 0 0 0 3.994-.952l71.442-36.052c2.91-1.467 4.717-4.364 4.717-7.565V9.14c0-4.707-3.899-8.518-8.692-8.518h-.019Z"/>
      <path fill="#717171" d="M152.783 1.784H12.067c-4.736 0-8.578 3.773-8.578 8.404v108.136c0 3.163 1.769 6.021 4.641 7.469l70.263 35.575a8.8 8.8 0 0 0 3.937.934 8.8 8.8 0 0 0 3.938-.934l70.453-35.575c2.872-1.448 4.641-4.306 4.641-7.469V10.188c0-4.63-3.842-8.404-8.579-8.404Z"/>
      <path fill="#555" d="M151.585 2.947H12.847c-4.66 0-8.464 3.715-8.464 8.289V117.37c0 3.106 1.75 5.945 4.584 7.374l69.274 35.099c1.198.61 2.53.934 3.88.934s2.682-.324 3.88-.915l69.464-35.099c2.834-1.429 4.584-4.249 4.584-7.374V11.236c0-4.574-3.804-8.29-8.464-8.29Z"/>
      <path fill="#393939" d="M150.368 4.11H13.627c-4.603 0-8.331 3.677-8.331 8.174v104.153c0 3.068 1.73 5.85 4.508 7.26l68.285 34.604a8.63 8.63 0 0 0 3.823.914 8.323 8.323 0 0 0 3.823-.914l68.475-34.623c2.796-1.41 4.527-4.192 4.527-7.26V12.284c0-4.516-3.747-8.175-8.331-8.175h-.038Z"/>
      <path fill="#1C1C1C" d="M149.169 5.252H14.407c-4.527 0-8.217 3.62-8.217 8.06v102.153c0 3.03 1.712 5.774 4.45 7.165l67.296 34.127a8.36 8.36 0 0 0 7.533 0l67.486-34.127c2.739-1.391 4.45-4.135 4.45-7.165V13.332c0-4.44-3.69-8.06-8.217-8.06l-.019-.02Z"/>
      <path fill="#000" d="M147.952 6.415H15.168c-4.47 0-8.103 3.563-8.103 7.945v100.171c0 2.992 1.674 5.698 4.375 7.07l66.287 33.651a8.387 8.387 0 0 0 3.71.895 8.307 8.307 0 0 0 3.708-.876l66.478-33.651c2.701-1.372 4.394-4.078 4.394-7.069V14.379c0-4.382-3.633-7.945-8.103-7.945l.038-.02Z"/>
    </g>
    <path fill="url(#b)" d="M150.455 5.278H14.285c-3.462 0-6.277 2.82-6.277 6.288v104.802a6.317 6.317 0 0 0 3.386 5.583l67.999 35.213a6.238 6.238 0 0 0 5.744 0l68.19-35.213a6.3 6.3 0 0 0 3.405-5.583V11.566c0-3.468-2.816-6.288-6.277-6.288Z"/>
    <path fill="url(#c)" d="M29.406 5.278H14.285c-3.462 0-6.277 2.82-6.277 6.288v104.802a6.317 6.317 0 0 0 3.386 5.583L39.62 61.337 29.406 5.278Z"/>
    <path fill="url(#d)" d="M150.455 5.278h-15.502L124.739 61.49l28.588 60.461a6.3 6.3 0 0 0 3.405-5.583V11.566c0-3.468-2.816-6.288-6.277-6.288Z"/>
    <path fill="url(#e)" d="M8.008 60.537v55.831a6.316 6.316 0 0 0 3.386 5.583l67.999 35.213a6.238 6.238 0 0 0 5.744 0l68.19-35.213a6.298 6.298 0 0 0 3.405-5.583v-55.83H8.008Z"/>
    <path fill="url(#f)" d="M39.944 60.975H11.412v66.692h28.532V60.975Z"/>
    <path fill="url(#g)" d="M96.645 60.537H68.114v95.179h28.53V60.537Z"/>
    <path fill="url(#h)" d="M154.069 60.975h-28.532v64.787h28.532V60.975Z"/>
    <path fill="url(#i)" d="M156.732 60.537H8.008v1.353h148.724v-1.353Z" opacity=".55" style="mix-blend-mode:screen"/>
    <path fill="#fff" d="m22.54 21.684-2.568 1.868.97-3.03-2.568-1.867h3.177l.989-3.03.97 3.03h3.176l-2.568 1.867.99 3.03-2.568-1.868Zm13.181 0-2.568 1.868.97-3.03-2.567-1.867h3.176l.99-3.03.97 3.03h3.176L37.3 20.522l.989 3.03-2.568-1.868Zm-6.353 11.033L26.8 34.584l.97-3.01-2.567-1.887h3.176l.99-3.03.988 3.03h3.177l-2.587 1.887.989 3.01-2.568-1.867ZM49.15 21.684l-2.568 1.868.99-3.03-2.569-1.867h3.177l.97-3.03.989 3.03h3.176l-2.567 1.867.989 3.03-2.587-1.868Zm-6.334 11.033-2.568 1.867.97-3.01-2.568-1.887h3.177l.989-3.03.97 3.03h3.176l-2.567 1.887.989 3.01-2.568-1.867Zm19.515-11.033-2.568 1.868.99-3.03-2.568-1.867h3.176l.97-3.03.99 3.03h3.176l-2.568 1.867.99 3.03-2.588-1.868Zm-6.334 11.033-2.568 1.867.97-3.01-2.567-1.887h3.176l.99-3.03.97 3.03h3.176l-2.568 1.887.99 3.01-2.569-1.867Zm19.782-11.033-2.568 1.868.99-3.03-2.569-1.867h3.177l.97-3.03.989 3.03h3.177l-2.568 1.867.97 3.03-2.568-1.868Zm-6.353 11.033-2.568 1.867.99-3.01-2.569-1.887h3.177l.97-3.03.99 3.03h3.176l-2.568 1.887.989 3.01-2.587-1.867ZM88.96 21.684l-2.567 1.868.989-3.03-2.568-1.867h3.176l.97-3.03.99 3.03h3.176l-2.568 1.867.97 3.03-2.568-1.868Zm-6.353 11.033-2.567 1.867.989-3.01-2.568-1.887h3.176l.97-3.03.99 3.03h3.176l-2.568 1.887.99 3.01-2.588-1.867Zm19.801-11.033-2.092 1.868.97-3.03-2.568-1.867h3.177l.989-3.03.97 3.03h3.176l-2.568 1.867.989 3.03-3.043-1.868Zm-6.353 11.033-2.568 1.867.99-3.01-2.587-1.887h3.195l.97-3.03.99 3.03h3.176l-2.568 1.887.97 3.01-2.568-1.867Zm19.535-11.033-2.568 1.868.97-3.03-2.568-1.867h3.176l.99-3.03.989 3.03h3.176l-2.568 1.867.97 3.03-2.567-1.868Zm-6.353 11.033-2.568 1.867.989-3.01-2.568-1.887h3.177l.97-3.03.989 3.03h3.176l-2.568 1.887.97 3.01-2.567-1.867Zm19.8-11.033-2.568 1.868.971-3.03-2.568-1.867h3.176l.989-3.03.97 3.03h3.177l-2.568 1.867.989 3.03-2.568-1.868Zm-6.353 11.033-2.568 1.867.971-3.01-2.568-1.887h3.176l.989-3.03.989 3.03h3.177l-2.587 1.887.989 3.01-2.568-1.867Zm19.535-11.033-2.568 1.868.97-3.03-2.568-1.867h3.177l.989-3.03.97 3.03h3.176l-2.568 1.867.99 3.03-2.568-1.868Zm-6.353 11.033-2.568 1.867.97-3.01-2.568-1.887h3.177l.989-3.03.989 3.03h3.176l-2.587 1.887.99 3.01-2.568-1.867Z" style="mix-blend-mode:soft-light"/>
    <path fill="#000" d="M82.265 159.45a7.971 7.971 0 0 1-3.671-.895l-67.866-35.137a7.96 7.96 0 0 1-4.318-7.108V11.7c0-4.421 3.595-8.003 7.989-8.003H150.34c4.412 0 7.988 3.582 7.988 8.003v104.59a7.943 7.943 0 0 1-4.336 7.108l-68.057 35.156a7.894 7.894 0 0 1-3.652.895h-.019ZM14.4 11.547s-.133.057-.133.133v104.63s.019.096.076.115l67.866 35.137h.114l68.057-35.156s.076-.077.076-.115V11.7s-.057-.134-.133-.134H14.399v-.019Z" opacity=".29" style="mix-blend-mode:multiply"/>
    <path fill="url(#j)" d="M151.748 3.83H12.991a6.386 6.386 0 0 0-6.39 6.402v106.803a6.358 6.358 0 0 0 3.461 5.678l69.293 35.88a6.36 6.36 0 0 0 5.858 0l69.483-35.88a6.408 6.408 0 0 0 3.462-5.697V10.232a6.386 6.386 0 0 0-6.391-6.402h-.019Zm1.902 113.186c0 .724-.399 1.372-1.027 1.695L83.14 154.592c-.266.133-.57.209-.875.209-.304 0-.609-.076-.875-.209l-69.274-35.861a1.9 1.9 0 0 1-1.027-1.696V10.233a1.91 1.91 0 0 1 1.902-1.906h138.757a1.91 1.91 0 0 1 1.902 1.905v106.784Z"/>
    <path fill="url(#k)" d="M153.289 2.115H11.451c-3.614 0-6.525 2.934-6.525 6.536v109.165a6.56 6.56 0 0 0 3.538 5.811l70.815 36.662a6.52 6.52 0 0 0 5.991 0l71.005-36.681a6.56 6.56 0 0 0 3.538-5.811V8.67a6.528 6.528 0 0 0-6.524-6.536v-.019Zm1.94 115.682c0 .724-.4 1.391-1.046 1.734l-71.005 36.68c-.266.134-.59.21-.894.21-.304 0-.628-.076-.894-.21L10.557 119.55a1.94 1.94 0 0 1-1.047-1.734V8.67a1.95 1.95 0 0 1 1.94-1.944h141.84a1.95 1.95 0 0 1 1.94 1.944v109.127Z"/>
    <path fill="url(#l)" d="M153.289 0H11.451C6.695 0 2.815 3.887 2.815 8.67v109.146c0 3.258 1.788 6.212 4.68 7.698l70.814 36.661a8.69 8.69 0 0 0 3.975.972 8.43 8.43 0 0 0 3.956-.972l71.005-36.68c2.891-1.486 4.679-4.44 4.679-7.698V8.67c0-4.783-3.88-8.67-8.654-8.67h.019Zm1.94 8.67v109.127c0 .724-.4 1.391-1.046 1.734l-71.005 36.68c-.266.134-.59.21-.894.21-.304 0-.628-.076-.894-.21L10.557 119.55a1.94 1.94 0 0 1-1.047-1.734V8.67a1.95 1.95 0 0 1 1.94-1.944h141.84a1.95 1.95 0 0 1 1.94 1.944Z"/>
    <path fill="#fff" d="M153.289 6.002H11.451a2.653 2.653 0 0 0-2.644 2.649v109.165a2.67 2.67 0 0 0 1.426 2.363l70.815 36.661c.38.191.799.305 1.217.305.418 0 .837-.095 1.217-.286l71.005-36.68a2.653 2.653 0 0 0 1.446-2.363V8.67a2.653 2.653 0 0 0-2.644-2.649v-.019Zm1.94 111.795c0 .724-.4 1.391-1.046 1.734l-71.005 36.68c-.266.134-.59.21-.894.21-.304 0-.628-.076-.894-.21L10.557 119.55a1.94 1.94 0 0 1-1.047-1.734V8.67a1.95 1.95 0 0 1 1.94-1.944h141.84a1.95 1.95 0 0 1 1.94 1.944v109.127Z"/>
    <g opacity=".4" style="mix-blend-mode:multiply">
      <path fill="#fff" d="m84.776 11.471 10.1 31.326a2.307 2.307 0 0 0 2.187 1.6h32.659c2.225 0 3.157 2.878 1.35 4.193l-26.419 19.36a2.346 2.346 0 0 0-.837 2.59l10.1 31.327c.684 2.134-1.731 3.906-3.538 2.591l-26.42-19.36a2.28 2.28 0 0 0-2.701 0l-26.42 19.36c-1.807 1.315-4.223-.457-3.538-2.591l10.1-31.326c.304-.953-.038-2-.837-2.592l-26.42-19.36c-1.807-1.314-.875-4.191 1.35-4.191h32.66c.989 0 1.883-.648 2.187-1.601l10.1-31.326c.685-2.134 3.69-2.134 4.375 0h-.038Z"/>
      <path fill="#E6E6E6" d="M96.797 44.664H128.6c2.225 0 3.157 2.878 1.35 4.192l-25.735 18.865a2.347 2.347 0 0 0-.837 2.591l9.834 30.507c.685 2.134-1.731 3.906-3.538 2.591L83.939 84.546a2.28 2.28 0 0 0-2.701 0L55.503 103.41c-1.807 1.315-4.223-.457-3.538-2.591l9.834-30.507c.304-.953-.038-2-.837-2.591L35.227 48.856c-1.807-1.314-.875-4.192 1.35-4.192H68.38c.989 0 1.883-.647 2.187-1.6l9.834-30.507c.685-2.134 3.69-2.134 4.375 0l9.834 30.507a2.307 2.307 0 0 0 2.187 1.6Z"/>
      <path fill="#CCC" d="M96.53 44.912h30.948c2.225 0 3.157 2.877 1.35 4.192l-25.031 18.35a2.346 2.346 0 0 0-.837 2.591l9.567 29.688c.685 2.134-1.731 3.906-3.538 2.591l-25.031-18.35a2.28 2.28 0 0 0-2.701 0l-25.032 18.35c-1.806 1.315-4.222-.457-3.537-2.591l9.567-29.688c.304-.952-.038-2-.837-2.591l-25.031-18.35c-1.807-1.315-.875-4.192 1.35-4.192h30.947c.99 0 1.883-.648 2.188-1.6l9.567-29.688c.685-2.134 3.69-2.134 4.375 0l9.567 29.687a2.307 2.307 0 0 0 2.188 1.601h-.038Z"/>
      <path fill="#B3B3B3" d="M96.264 45.16h30.091c2.226 0 3.158 2.877 1.351 4.192l-24.347 17.854a2.347 2.347 0 0 0-.837 2.592l9.301 28.868c.685 2.134-1.73 3.906-3.537 2.591L83.939 83.403a2.28 2.28 0 0 0-2.701 0L56.89 101.257c-1.807 1.315-4.222-.457-3.538-2.591l9.302-28.868a2.348 2.348 0 0 0-.837-2.592L37.47 49.352c-1.807-1.315-.875-4.192 1.35-4.192h30.091c.99 0 1.883-.648 2.188-1.6L80.4 14.69c.685-2.134 3.69-2.134 4.375 0l9.301 28.868a2.307 2.307 0 0 0 2.187 1.6Z"/>
      <path fill="#999" d="M95.998 45.427h29.235c2.226 0 3.158 2.877 1.351 4.192l-23.662 17.34a2.346 2.346 0 0 0-.837 2.591l9.035 28.049c.684 2.134-1.731 3.906-3.538 2.591L83.92 82.85a2.28 2.28 0 0 0-2.701 0l-23.662 17.34c-1.807 1.315-4.223-.457-3.538-2.591l9.035-28.049c.304-.953-.038-2-.837-2.591l-23.662-17.34c-1.807-1.315-.875-4.192 1.35-4.192h29.236c.989 0 1.883-.648 2.187-1.601l9.035-28.049c.685-2.134 3.69-2.134 4.375 0l9.035 28.049a2.307 2.307 0 0 0 2.187 1.6h.038Z"/>
      <path fill="gray" d="M95.732 45.674h28.379c2.225 0 3.157 2.878 1.35 4.193l-22.958 16.825a2.347 2.347 0 0 0-.837 2.591l8.769 27.23c.685 2.134-1.731 3.906-3.538 2.591L83.939 82.279a2.28 2.28 0 0 0-2.701 0L58.28 99.104c-1.807 1.315-4.223-.457-3.538-2.591l8.769-27.23c.304-.952-.039-2-.837-2.591L39.715 49.867c-1.807-1.315-.875-4.193 1.351-4.193h28.379c.99 0 1.883-.648 2.187-1.6l8.769-27.23c.685-2.134 3.69-2.134 4.375 0l8.768 27.23a2.307 2.307 0 0 0 2.188 1.6Z"/>
      <path fill="#666" d="M95.466 45.922h27.523c2.225 0 3.157 2.877 1.35 4.192l-22.273 16.33a2.346 2.346 0 0 0-.837 2.591l8.502 26.41c.685 2.135-1.731 3.907-3.538 2.592L83.92 81.707a2.28 2.28 0 0 0-2.701 0l-22.273 16.33c-1.807 1.315-4.223-.458-3.538-2.592l8.502-26.41c.304-.952-.038-2-.837-2.591L40.8 50.114c-1.807-1.315-.875-4.192 1.35-4.192h27.523c.99 0 1.883-.648 2.188-1.6l8.502-26.41c.685-2.135 3.69-2.135 4.375 0l8.502 26.41a2.307 2.307 0 0 0 2.188 1.6h.038Z"/>
      <path fill="#4D4D4D" d="M95.218 46.189h26.667c2.226 0 3.158 2.877 1.351 4.192l-21.589 15.815a2.347 2.347 0 0 0-.837 2.592l8.236 25.59c.685 2.135-1.731 3.907-3.538 2.592L83.92 81.154a2.28 2.28 0 0 0-2.701 0L59.63 96.97c-1.807 1.315-4.222-.457-3.538-2.592l8.236-25.59a2.346 2.346 0 0 0-.837-2.592L41.904 50.381c-1.807-1.315-.875-4.192 1.35-4.192h26.668c.989 0 1.883-.648 2.187-1.6l8.236-25.591c.685-2.135 3.69-2.135 4.375 0l8.236 25.59a2.307 2.307 0 0 0 2.187 1.6h.076Z"/>
      <path fill="#333" d="M94.952 46.437h25.811c2.226 0 3.158 2.877 1.351 4.192l-20.885 15.32a2.347 2.347 0 0 0-.837 2.591l7.97 24.771c.684 2.134-1.731 3.907-3.538 2.592l-20.885-15.32a2.28 2.28 0 0 0-2.701 0l-20.885 15.32c-1.807 1.315-4.223-.458-3.538-2.592l7.97-24.77a2.347 2.347 0 0 0-.837-2.592l-20.885-15.32c-1.807-1.315-.875-4.192 1.35-4.192h25.812c.989 0 1.883-.648 2.187-1.601l7.97-24.771c.685-2.134 3.69-2.134 4.375 0l7.97 24.771a2.307 2.307 0 0 0 2.187 1.6h.038Z"/>
      <path fill="#1A1A1A" d="M94.686 46.684h24.955c2.225 0 3.157 2.878 1.35 4.192l-20.2 14.806a2.347 2.347 0 0 0-.837 2.591l7.723 23.952c.685 2.134-1.731 3.907-3.538 2.592l-20.2-14.806a2.28 2.28 0 0 0-2.701 0l-20.2 14.806c-1.807 1.315-4.223-.458-3.538-2.592l7.722-23.952c.305-.952-.038-2-.837-2.591l-20.2-14.806c-1.807-1.314-.875-4.192 1.35-4.192h24.956c.99 0 1.883-.648 2.188-1.6L80.4 21.132c.685-2.134 3.69-2.134 4.375 0l7.722 23.952a2.307 2.307 0 0 0 2.188 1.6Z"/>
      <path fill="#000" d="m84.776 22.199 7.456 23.132a2.307 2.307 0 0 0 2.187 1.6h24.119c2.225 0 3.157 2.878 1.35 4.193l-19.496 14.291a2.347 2.347 0 0 0-.837 2.591l7.456 23.133c.685 2.134-1.731 3.906-3.538 2.591L83.977 79.44a2.28 2.28 0 0 0-2.701 0L61.78 93.73c-1.807 1.315-4.223-.457-3.538-2.591l7.456-23.132a2.348 2.348 0 0 0-.837-2.592L45.365 51.124c-1.807-1.315-.875-4.192 1.35-4.192h24.118c.99 0 1.884-.648 2.188-1.6l7.456-23.133c.685-2.134 3.69-2.134 4.375 0h-.076Z"/>
    </g>
    <path fill="#000" d="m82.265 16.482 10.29 31.746 33.287-2.858.038 2.858-26.953 19.626 10.291 28.906-1.446 2.306-25.507-19.093-25.811 18.788-1.142-2 10.29-28.907L38.65 48.228l-.076-2.858 33.4 2.858 10.291-31.746Z" opacity=".41" style="mix-blend-mode:multiply"/>
    <path fill="url(#m)" d="m82.265 13.662 10.29 31.746 33.249-.591.076.59-26.953 19.608 10.291 31.117v.628L82.265 77.153 55.312 96.76v-.629l10.29-31.116L38.65 45.408v-.61l33.325.61 10.29-31.746Z"/>
    <path fill="url(#n)" d="m82.265 13.033 10.29 31.746h33.325L98.927 64.405l10.291 31.745-26.953-19.626L55.312 96.15l10.29-31.745L38.65 44.78h33.325l10.29-31.746Z"/>
    <path fill="#000" d="M82.265 72.79 62.027 87.518l7.722-23.838-20.238-14.748h25.013l7.741-23.838 7.742 23.838h25.012L94.781 63.68l7.741 23.838-20.257-14.73Z"/>
    <path fill="url(#o)" d="M96.245 48.933a3729.142 3729.142 0 0 1-26.724 15.415l-7.513 23.17L82.246 72.79l20.238 14.73-7.741-23.838 20.238-14.73H96.207l.038-.018Z" style="mix-blend-mode:screen"/>
    <path fill="#002765" d="m74.524 48.933 7.741-23.838 7.742 23.838h25.069l-.057-.839H90.006l-7.74-23.837-7.742 23.837H49.51l.038.839h24.975Z"/>
    <path fill="url(#p)" d="m69.54 63.51-7.513 23.17.342-.266 7.38-22.733-.209-.171Z"/>
    <path fill="url(#q)" d="m94.78 63.681 7.381 22.733.361.266-7.532-23.17-.21.171Z"/>
  </g>
  <defs>
    <radialGradient id="b" cx="0" cy="0" r="1" gradientTransform="matrix(75.2654 0 0 75.3998 82.38 54.706)" gradientUnits="userSpaceOnUse">
      <stop stop-color="#0A7CFF"/>
      <stop offset=".29" stop-color="#0773E8"/>
      <stop offset=".89" stop-color="#015EAD"/>
      <stop offset="1" stop-color="#005AA2"/>
    </radialGradient>
    <radialGradient id="c" cx="0" cy="0" r="1" gradientTransform="matrix(68.7793 0 0 68.9021 82.38 49.218)" gradientUnits="userSpaceOnUse">
      <stop stop-color="#003BE2"/>
      <stop offset=".35" stop-color="#003CCB"/>
      <stop offset="1" stop-color="#004198"/>
    </radialGradient>
    <radialGradient id="d" cx="0" cy="0" r="1" gradientTransform="matrix(70.7575 0 0 70.8838 82.38 49.161)" gradientUnits="userSpaceOnUse">
      <stop stop-color="#003BE2"/>
      <stop offset=".35" stop-color="#003CCB"/>
      <stop offset="1" stop-color="#004198"/>
    </radialGradient>
    <radialGradient id="e" cx="0" cy="0" r="1" gradientTransform="matrix(75.2654 0 0 75.3998 82.38 81.574)" gradientUnits="userSpaceOnUse">
      <stop offset=".56" stop-color="#fff"/>
      <stop offset=".73" stop-color="#E8E8E8"/>
      <stop offset="1" stop-color="#BEBEBE"/>
    </radialGradient>
    <radialGradient id="f" cx="0" cy="0" r="1" gradientTransform="matrix(87.4768 0 0 61.4045 84.719 71.43)" gradientUnits="userSpaceOnUse">
      <stop offset=".01" stop-color="#5A9D00"/>
      <stop offset=".26" stop-color="#529700"/>
      <stop offset=".62" stop-color="#3D8800"/>
      <stop offset="1" stop-color="#217400"/>
    </radialGradient>
    <radialGradient id="g" cx="0" cy="0" r="1" gradientTransform="matrix(87.4768 0 0 87.633 84.338 .953)" gradientUnits="userSpaceOnUse">
      <stop offset=".01" stop-color="#5A9D00"/>
      <stop offset=".26" stop-color="#529700"/>
      <stop offset=".62" stop-color="#3D8800"/>
      <stop offset="1" stop-color="#217400"/>
    </radialGradient>
    <radialGradient id="h" cx="0" cy="0" r="1" gradientTransform="matrix(87.4768 0 0 59.6501 84.68 20.417)" gradientUnits="userSpaceOnUse">
      <stop offset=".01" stop-color="#5A9D00"/>
      <stop offset=".26" stop-color="#529700"/>
      <stop offset=".62" stop-color="#3D8800"/>
      <stop offset="1" stop-color="#217400"/>
    </radialGradient>
    <radialGradient id="i" cx="0" cy="0" r="1" gradientTransform="matrix(75.2654 0 0 75.3997 .951 81.574)" gradientUnits="userSpaceOnUse">
      <stop offset=".56" stop-color="#fff"/>
      <stop offset=".73" stop-color="#E8E8E8"/>
      <stop offset="1" stop-color="#BEBEBE"/>
    </radialGradient>
    <radialGradient id="o" cx="0" cy="0" r="1" gradientTransform="matrix(46.7342 0 0 46.8176 43.862 47.827)" gradientUnits="userSpaceOnUse">
      <stop stop-color="#A0FFFF"/>
      <stop offset=".12" stop-color="#91E7E7"/>
      <stop offset=".37" stop-color="#6CACAC"/>
      <stop offset=".72" stop-color="#314E4E"/>
      <stop offset="1"/>
    </radialGradient>
    <radialGradient id="p" cx="0" cy="0" r="1" gradientTransform="matrix(15.6922 0 0 15.7202 51.775 72.237)" gradientUnits="userSpaceOnUse">
      <stop stop-color="#003B65"/>
      <stop offset=".49" stop-color="#003D7B"/>
      <stop offset="1" stop-color="#004198"/>
    </radialGradient>
    <radialGradient id="q" cx="0" cy="0" r="1" gradientTransform="matrix(15.6922 0 0 15.7202 84.528 .953)" gradientUnits="userSpaceOnUse">
      <stop stop-color="#003B65"/>
      <stop offset=".49" stop-color="#003D7B"/>
      <stop offset="1" stop-color="#004198"/>
    </radialGradient>
    <linearGradient id="j" x1="82.379" x2="82.379" y1="160.537" y2="5.412" gradientUnits="userSpaceOnUse">
      <stop offset=".25" stop-color="#fff"/>
      <stop offset=".26" stop-color="#C0C4C4"/>
      <stop offset=".27" stop-color="#8C9494"/>
      <stop offset=".96" stop-color="#798182"/>
      <stop offset="1" stop-color="#545454"/>
    </linearGradient>
    <linearGradient id="k" x1="82.379" x2="82.379" y1="1.181" y2="158.936" gradientUnits="userSpaceOnUse">
      <stop stop-color="#fff"/>
      <stop offset=".18" stop-color="#FDFDFD"/>
      <stop offset=".24" stop-color="#F6F6F6"/>
      <stop offset=".28" stop-color="#EAEBEB"/>
      <stop offset=".32" stop-color="#D9DCDC"/>
      <stop offset=".35" stop-color="#C3C8C8"/>
      <stop offset=".36" stop-color="#BABFBF"/>
      <stop offset=".38" stop-color="#CFD3D3"/>
      <stop offset=".4" stop-color="#E0E2E2"/>
      <stop offset=".42" stop-color="#ECEDED"/>
      <stop offset=".45" stop-color="#F3F4F4"/>
      <stop offset=".53" stop-color="#F5F6F6"/>
      <stop offset=".75" stop-color="#9FA5A5"/>
      <stop offset="1" stop-color="#B8B8B8"/>
    </linearGradient>
    <linearGradient id="l" x1="43.862" x2="109.89" y1="-4.802" y2="111.465" gradientUnits="userSpaceOnUse">
      <stop stop-color="#fff"/>
      <stop offset=".01" stop-color="#F8F8F8"/>
      <stop offset=".03" stop-color="#E4E6E6"/>
      <stop offset=".04" stop-color="#CDCFCF"/>
      <stop offset=".05" stop-color="#D7D8D8"/>
      <stop offset=".07" stop-color="#E9E9E9"/>
      <stop offset=".09" stop-color="#F5F6F6"/>
      <stop offset=".12" stop-color="#FCFDFD"/>
      <stop offset=".19" stop-color="#fff"/>
      <stop offset=".42" stop-color="#F3F4F4"/>
      <stop offset=".43" stop-color="#DEE0E0"/>
      <stop offset=".45" stop-color="#CDD1D1"/>
      <stop offset=".47" stop-color="#C1C6C6"/>
      <stop offset=".5" stop-color="#BABFBF"/>
      <stop offset=".59" stop-color="#B9BEBE"/>
      <stop offset=".6" stop-color="#C7CBCB"/>
      <stop offset=".62" stop-color="#D3D6D6"/>
      <stop offset=".65" stop-color="#DADDDD"/>
      <stop offset=".73" stop-color="#DCDFDF"/>
      <stop offset=".82" stop-color="#C7CBCB"/>
      <stop offset=".84" stop-color="#CED2D2"/>
      <stop offset=".87" stop-color="#E4E6E6"/>
      <stop offset=".9" stop-color="#fff"/>
      <stop offset=".91" stop-color="#DDD"/>
      <stop offset=".92" stop-color="#CCC"/>
      <stop offset=".94" stop-color="silver"/>
      <stop offset=".95" stop-color="#B9B9B9"/>
      <stop offset="1" stop-color="#B8B8B8"/>
    </linearGradient>
    <linearGradient id="m" x1="82.265" x2="82.265" y1="-6.364" y2="98.247" gradientUnits="userSpaceOnUse">
      <stop offset=".67" stop-color="#2E2E2E"/>
      <stop offset=".82" stop-color="#686868"/>
      <stop offset="1" stop-color="#B8B8B8"/>
    </linearGradient>
    <linearGradient id="n" x1="82.265" x2="82.265" y1="-6.993" y2="97.618" gradientUnits="userSpaceOnUse">
      <stop stop-color="#fff"/>
      <stop offset=".1" stop-color="#C5C9C9"/>
      <stop offset=".12" stop-color="#BABFBF"/>
      <stop offset=".16" stop-color="#CFD3D3"/>
      <stop offset=".21" stop-color="#E0E2E2"/>
      <stop offset=".27" stop-color="#ECEDED"/>
      <stop offset=".35" stop-color="#F3F4F4"/>
      <stop offset=".57" stop-color="#F5F6F6"/>
      <stop offset=".67" stop-color="#DCDFDF"/>
      <stop offset=".96" stop-color="#C7CBCB"/>
      <stop offset=".97" stop-color="#C0C2C2"/>
      <stop offset=".98" stop-color="#B9BABA"/>
      <stop offset="1" stop-color="#B8B8B8"/>
    </linearGradient>
    <clipPath id="a">
      <path fill="#fff" d="M0 0h169v177H0z"/>
    </clipPath>
  </defs>
</svg>
