<svg xmlns="http://www.w3.org/2000/svg" width="38" height="20" fill="none" viewBox="0 0 38 20">
  <g clip-path="url(#a)">
    <path fill="#1F3547" d="M1.938 17.775c-.472-.161-.703-.77-.542-1.442l.593-2.493 2.416.808-1.12 2.318c-.302.623-.874.97-1.347.809Zm4.205 1.543c-.463-.185-.658-.808-.458-1.47l.744-2.455 2.365.945-1.255 2.25c-.337.604-.93.915-1.391.73h-.005Zm4.163.682c-.502-.01-.914-.52-.98-1.207l-.23-2.547 2.556.043-.326 2.538c-.086.681-.523 1.183-1.025 1.173h.005Zm5.214-.677c-.493.078-1-.35-1.191-1.013l-.708-2.464 2.52-.409.162 2.557c.04.686-.292 1.256-.784 1.334v-.005Zm12.445-1.178c-.497.029-.954-.453-1.075-1.13l-.437-2.523 2.552-.15-.121 2.556c-.03.687-.427 1.218-.924 1.247h.005Zm5.795-.473c-.496.034-.964-.438-1.09-1.115l-.47-2.517 2.551-.185-.08 2.556c-.02.687-.407 1.222-.91 1.261Z"/>
    <path fill="#14B0BF" d="M.251 12.111s-.563 1.72 0 2.752c1.446 1.29 8.634 4.816 14.751 3.01 6.122-1.808 10.793-1.808 12.476-1.842 1.13-.024 6.845-.029 8.026-.959 1.02-.803 1.39-1.495 1.461-2.294.09-.979-.748-1.753-1.386-2.4-.472-.478-.94-.96-1.431-1.422-.156-.146-.538-.629-.789-.629-.357 0-16.675 3.098-16.675 3.098l-8.693-.17-7.74.856Z"/>
    <path fill="#F42A39" d="M1.928 14.37s6.228 3.268 11.959 2.401c5.726-.862 12.662-3.14 17.182-2.848 1.034.068 1.863.131 2.531.19 1.889.17 3.626-1.033 4.063-2.82.382-1.578.528-3.72-.14-6.35l-.412-1.49c-.13-.463-.708-.648-1.095-.346-2.054 1.631-7.74 5.05-13.505-1.368C13.807 8.77 2.225 9.866 2.225 9.866s-4.139 1.894-.297 4.5v.005Z"/>
    <path fill="#fff" d="M24.51 9.579a16.779 16.779 0 0 1-2.36-3.774c-.428-.95-.8-1.924-1.236-2.868-.593.418-1.2.808-1.809 1.178a67.4 67.4 0 0 0 1.301 2.712c.598 1.164 1.25 2.299 2.03 3.356.768 1.042 1.677 1.991 2.611 2.897.412.4.834.794 1.26 1.179a32.095 32.095 0 0 1 2.542-.317c-1.557-1.358-3.049-2.8-4.334-4.373l-.005.01Zm-5.882-.224a64.575 64.575 0 0 1-1.547-3.048c-.13-.283-.26-.57-.376-.862-.628.316-1.256.613-1.879.886.106.238.216.477.332.71 1.411 2.947 3.033 5.976 5.293 8.41.799-.18 1.593-.355 2.376-.52a23.491 23.491 0 0 1-4.204-5.58l.005.004Z"/>
    <path fill="#2A445D" d="M17.202 13.095c-.86-.813-1.839-1.286-2.994-1.573-1.004-.248-2.034-.38-3.048-.594-.884-.185-1.798-.434-2.532-.964a2.971 2.971 0 0 1-.969-1.189c-2.27.6-4.088.901-5.048 1.038-.783.112-1.506.492-1.988 1.095-.653.814-.925 2.06 1.245 3.511 0 0 6.253 3.224 11.974 2.323 1.707-.268 3.52-.667 5.349-1.08-.508-.96-1.22-1.842-1.99-2.567Z"/>
    <path fill="#32516B" d="M8.302 14.897C6.4 13.538 4.576 11.77 3.932 9.603c-.532.098-.979.166-1.315.215-.784.112-1.507.491-1.99 1.095-.652.813-.923 2.06 1.246 3.511 0 0 4.877 2.513 9.955 2.479-1.266-.492-2.41-1.213-3.52-2.006h-.006Z"/>
    <path fill="#2A445D" d="M37.216 3.837c-1.08.4-2.104.96-2.993 1.641-.708.541-1.27 1.174-1.773 1.9-.447.652-.889 1.315-1.416 1.909a6.747 6.747 0 0 1-4.445 2.288c-1.01.103-2.074.025-3.064.254-.854.2-1.687.555-2.355 1.12-.623.526-1.07 1.203-1.362 1.948-.095.243-.17.594-.296.9 4.224-.964 8.317-1.529 14.139-1.665 1.898-.044 3.62-1.057 4.042-2.849.372-1.582.503-3.72-.185-6.35-.106-.409-.206-.77-.292-1.1v.004Z"/>
    <path fill="#32516B" d="M37.508 4.933c-.106-.409-.206-.77-.291-1.1-.141 1.163-.216 2.342-.442 3.486-.347 1.783-1.105 3.565-2.617 4.704-1.3.984-2.913 1.598-4.415 2.275a90.695 90.695 0 0 1 3.913-.17c1.898-.045 3.62-1.058 4.043-2.85.371-1.582.502-3.72-.186-6.35l-.005.005Z"/>
    <path fill="#14B0BF" d="M24.404.808c-.974-1.236-.799-1.256-3.21 1.364C18.96 4.704 8.675 8.327 8.529 8.624c0 0 10.2.458 17.031-5.804 1.175-1.077-.176-.775-1.155-2.016v.004Z"/>
    <path fill="#1F3547" d="M11.722 9.574a.575.575 0 0 1-.567-.453 2.233 2.233 0 0 0-.758-1.256.55.55 0 0 1-.07-.79.587.587 0 0 1 .813-.067 3.31 3.31 0 0 1 1.15 1.894.56.56 0 0 1-.568.667v.005Zm3.587-.531a.573.573 0 0 1-.513-.307 9.801 9.801 0 0 0-1.592-2.21.544.544 0 0 1 .03-.79.59.59 0 0 1 .814.03 10.836 10.836 0 0 1 1.778 2.464.548.548 0 0 1-.251.75.624.624 0 0 1-.261.063h-.005Zm3.194-.701a.58.58 0 0 1-.462-.224 24.961 24.961 0 0 0-2.336-2.625.548.548 0 0 1 0-.789.59.59 0 0 1 .814 0 26.142 26.142 0 0 1 2.44 2.742.553.553 0 0 1-.115.784.61.61 0 0 1-.346.112h.005Zm2.752-1.212a.586.586 0 0 1-.382-.142 28.247 28.247 0 0 1-2.732-2.707.55.55 0 0 1 .065-.79c.241-.2.608-.17.814.064a27.67 27.67 0 0 0 2.622 2.6.55.55 0 0 1 .045.79.592.592 0 0 1-.432.184Zm2.395-1.379a.597.597 0 0 1-.406-.16 126.928 126.928 0 0 1-2.953-2.927.544.544 0 0 1 .02-.79.586.586 0 0 1 .813.025c.954.98 1.939 1.953 2.923 2.898a.54.54 0 0 1 0 .789.575.575 0 0 1-.412.165h.015Z"/>
  </g>
  <defs>
    <clipPath id="a">
      <path fill="#fff" d="M0 0h38v20H0z"/>
    </clipPath>
  </defs>
</svg>
