<svg xmlns="http://www.w3.org/2000/svg" width="18" height="25" fill="none" viewBox="0 0 18 25">
  <g clip-path="url(#a)">
    <path fill="#CE1B31" d="m1.815 0 5.87 7.725h1.63l1.415-1.34L6.275 0h-4.46Z"/>
    <path fill="#FECC3D" d="m3.896 0 5.699 7.725h.797L4.694 0h-.798Z"/>
    <path fill="#F17B13" d="M9 10.928c-1.734 0-3.14-1.335-3.14-2.973S7.27 4.982 9 4.982c1.73 0 3.14 1.335 3.14 2.973S10.73 10.928 9 10.928ZM9 6.1c-1.081 0-1.955.832-1.955 1.851 0 1.02.878 1.851 1.955 1.851s1.955-.832 1.955-1.851C10.955 6.93 10.077 6.1 9 6.1Z"/>
    <path fill="#F17B13" d="M18 16.477C18 21.182 13.973 25 9 25s-9-3.818-9-8.523c0-4.704 4.027-8.522 9-8.522s9 3.813 9 8.522Z"/>
    <path fill="#FED45C" d="M17.27 16.478c0 4.325-3.703 7.831-8.27 7.831-4.568 0-8.27-3.506-8.27-7.831 0-4.326 3.702-7.832 8.27-7.832 4.567 0 8.27 3.506 8.27 7.832Z"/>
    <path fill="#F17B13" d="M16.513 16.478c0 3.928-3.365 7.114-7.513 7.114-4.149 0-7.514-3.186-7.514-7.114 0-3.929 3.365-7.115 7.514-7.115s7.513 3.186 7.513 7.115Z"/>
    <path fill="#F42A39" d="m16.72 0-5.864 7.725H7.68l-.36-.346L12.495 0h4.226Z"/>
    <path fill="#FED45C" d="M12.977 21.916s-.094.072-.243.136c-.144.064-.342.116-.527.073-.37-.081-.559-.465-.559-.465s.095-.055.23-.102a1.03 1.03 0 0 1 .496-.06c.364.064.603.418.603.418Zm1.009-.904s-.085.09-.22.17a.888.888 0 0 1-.51.15c-.378-.026-.626-.384-.626-.384s.33-.269.694-.265c.19.009.351.081.473.163.122.08.194.162.194.162l-.005.004Zm.843-1.079s-.068.102-.185.213c-.122.107-.293.222-.482.239a.798.798 0 0 1-.487-.128 1.268 1.268 0 0 1-.202-.15s.072-.08.184-.166a.98.98 0 0 1 .45-.209.92.92 0 0 1 .496.073.994.994 0 0 1 .221.123l.005.005Zm.612-1.255s-.045.12-.135.256a.849.849 0 0 1-.423.342c-.18.06-.37.017-.505-.03-.135-.051-.23-.111-.23-.111s.059-.09.145-.196c.09-.107.23-.23.396-.299a.943.943 0 0 1 .505-.034c.144.026.243.072.243.072h.004Zm.279-1.373s-.013.128-.067.282a.831.831 0 0 1-.324.43c-.158.103-.352.103-.496.086-.144-.017-.248-.056-.248-.056s.032-.098.09-.226a1.11 1.11 0 0 1 .307-.38.885.885 0 0 1 .482-.149 1.16 1.16 0 0 1 .257.013Zm-.08-1.386s.022.12.008.281c-.022.162-.076.354-.202.49a.782.782 0 0 1-.464.201c-.144.017-.257 0-.257 0s0-.025.005-.068c.004-.043.018-.102.027-.17a.882.882 0 0 1 .202-.44.86.86 0 0 1 .424-.252c.14-.038.252-.042.252-.042h.005Zm-.379-1.301s.176.456-.036.776a.751.751 0 0 1-.4.286c-.136.047-.249.06-.249.06s-.027-.103-.027-.24a.94.94 0 0 1 .104-.464.872.872 0 0 1 .37-.325c.13-.063.238-.09.238-.09v-.003Zm-.594-1.182s.058.103.099.248a.718.718 0 0 1-.01.503c-.143.333-.576.448-.576.448s-.166-.38-.05-.704c.127-.333.537-.495.537-.495Zm-.735-1.066s.284.371.18.72c-.099.346-.504.517-.504.517s-.059-.09-.104-.218a.91.91 0 0 1-.04-.473c.081-.337.468-.546.468-.546Zm-2.554 8.245s-.302.213-.338.537c-.031.32.212.67.212.67s.095-.051.194-.15a.679.679 0 0 0 .212-.409c.027-.34-.284-.648-.284-.648h.004Zm.815-.657s-.26.252-.252.58c.01.333.32.631.32.631s.086-.068.167-.179a.684.684 0 0 0 .144-.439c-.027-.337-.379-.597-.379-.597v.004Zm.672-.755s-.05.073-.09.184a.738.738 0 0 0-.046.422c.068.324.424.576.424.576s.072-.081.135-.2a.664.664 0 0 0 .068-.453c-.045-.166-.171-.294-.28-.384a1.44 1.44 0 0 0-.207-.14l-.004-.005Zm.491-.828s-.036.077-.046.188a.716.716 0 0 0 .05.41c.068.149.198.273.31.358.118.085.217.128.217.128s.059-.085.095-.218c.031-.132.054-.302-.032-.452-.08-.153-.23-.251-.36-.315-.126-.064-.234-.094-.234-.094v-.005Zm.266-.887s-.014.081 0 .192c.018.111.04.248.153.38a.994.994 0 0 0 .392.277c.13.06.243.081.243.081s.04-.098.036-.234c0-.137-.022-.303-.144-.431-.117-.128-.288-.192-.428-.226a1.4 1.4 0 0 0-.252-.039Zm.027-.917s.009.081.058.188a.676.676 0 0 0 .243.333c.136.102.307.153.45.179.145.026.258.021.258.021v-.068a.5.5 0 0 0-.027-.166c-.041-.133-.1-.29-.253-.389a.866.866 0 0 0-.477-.119c-.149 0-.257.021-.257.021h.005Zm-.199-.934s.023.081.09.18a.865.865 0 0 0 .325.285c.153.072.337.085.486.077.144-.009.252-.039.252-.039s-.022-.102-.08-.221a.673.673 0 0 0-.339-.325.835.835 0 0 0-.486-.025c-.144.03-.243.072-.243.072l-.005-.004Zm-.4-.926s.044.082.125.171c.082.09.212.192.383.235.162.047.347.025.491-.009.14-.034.24-.08.24-.08s-.037-.099-.123-.206a.787.787 0 0 0-.396-.264.838.838 0 0 0-.486.051c-.136.051-.23.107-.23.107l-.005-.005Zm-.56-.891s.217.307.573.35c.342.051.707-.192.707-.192s-.054-.09-.153-.188a.83.83 0 0 0-.437-.213c-.356-.038-.69.239-.69.239v.004Zm.627-1.412a.87.87 0 0 1 .176.508c.009.153-.014.264-.014.264s-.121-.017-.27-.068a.991.991 0 0 1-.446-.286c-.252-.286-.194-.746-.194-.746s.478.025.748.332v-.004Zm-7.969 9.508s.095.072.244.136c.144.064.342.116.527.073.37-.081.558-.465.558-.465s-.094-.055-.23-.102a1.03 1.03 0 0 0-.495-.06c-.365.064-.604.418-.604.418Zm-1.004-.904s.086.09.22.17a.893.893 0 0 0 .514.15c.379-.026.626-.384.626-.384s-.328-.269-.693-.265a.934.934 0 0 0-.473.163 1.09 1.09 0 0 0-.194.162v.004Zm-.847-1.079s.068.102.185.213c.122.107.293.222.482.239a.798.798 0 0 0 .487-.128c.121-.073.202-.15.202-.15s-.072-.08-.184-.166a.984.984 0 0 0-.45-.209.927.927 0 0 0-.496.073.964.964 0 0 0-.221.123l-.005.005Zm-.612-1.255s.045.12.135.256a.849.849 0 0 0 .423.342c.18.06.37.017.505-.03.135-.051.23-.111.23-.111s-.06-.09-.145-.196a1.08 1.08 0 0 0-.396-.299.943.943 0 0 0-.505-.034 1.057 1.057 0 0 0-.243.072h-.004Zm-.28-1.373s.014.128.068.282c.05.153.167.332.324.43.158.103.352.103.496.086.144-.017.247-.056.247-.056s-.031-.098-.09-.226a1.084 1.084 0 0 0-.306-.38.885.885 0 0 0-.482-.149c-.149-.008-.257.013-.257.013Zm.081-1.386s-.022.12-.009.281c.023.162.077.354.203.49a.78.78 0 0 0 .464.201c.144.017.257 0 .257 0s0-.025-.005-.068c-.004-.043-.018-.102-.027-.17a.88.88 0 0 0-.202-.44.86.86 0 0 0-.424-.252c-.14-.038-.252-.042-.252-.042h-.005Zm.379-1.301s-.176.456.036.776a.75.75 0 0 0 .4.286c.136.047.248.06.248.06s.027-.103.027-.24a.94.94 0 0 0-.103-.464.872.872 0 0 0-.37-.325 1.37 1.37 0 0 0-.238-.09v-.003Zm.595-1.182s-.06.103-.1.248a.719.719 0 0 0 .01.503c.143.333.576.448.576.448s.166-.38.05-.704c-.127-.333-.537-.495-.537-.495Zm.734-1.066s-.284.371-.18.72c.099.346.504.517.504.517s.059-.09.104-.218a.909.909 0 0 0 .04-.473c-.081-.337-.468-.546-.468-.546Zm2.554 8.245s.302.213.338.537c.031.32-.212.67-.212.67s-.095-.051-.194-.15a.68.68 0 0 1-.212-.409c-.027-.34.284-.648.284-.648h-.004Zm-.816-.657s.261.252.252.58c-.009.333-.32.631-.32.631s-.085-.068-.166-.179a.685.685 0 0 1-.144-.439c.027-.337.378-.597.378-.597v.004Zm-.672-.755s.05.073.09.184c.046.106.078.26.046.422-.068.324-.423.576-.423.576s-.073-.081-.136-.2a.664.664 0 0 1-.067-.453c.045-.166.171-.294.28-.384.112-.09.206-.14.206-.14l.005-.005Zm-.49-.828s.036.077.045.188a.707.707 0 0 1-.05.41.998.998 0 0 1-.31.358c-.117.085-.216.128-.216.128s-.064-.085-.095-.218c-.032-.132-.054-.302.031-.452.082-.153.23-.251.36-.315a1.4 1.4 0 0 1 .235-.094v-.005Zm-.266-.887s.014.081 0 .192a.709.709 0 0 1-.153.38.994.994 0 0 1-.392.277c-.13.06-.243.081-.243.081s-.04-.098-.036-.234c0-.137.023-.303.144-.431.117-.128.288-.192.428-.226.14-.035.252-.039.252-.039Zm-.027-.917s-.009.081-.058.188a.676.676 0 0 1-.244.333 1.063 1.063 0 0 1-.45.179c-.144.026-.257.021-.257.021v-.068c0-.043.005-.102.027-.166.04-.133.1-.29.253-.389a.865.865 0 0 1 .477-.119c.144 0 .257.021.257.021h-.005Zm.199-.934s-.023.081-.09.18a.864.864 0 0 1-.325.285 1.034 1.034 0 0 1-.486.077c-.144-.009-.253-.039-.253-.039s.023-.102.082-.221a.673.673 0 0 1 .337-.325.835.835 0 0 1 .487-.025c.144.03.243.072.243.072l.005-.004Zm.401-.926s-.046.082-.127.171a.783.783 0 0 1-.382.235.983.983 0 0 1-.487-.009c-.14-.034-.239-.08-.239-.08s.036-.099.122-.206a.787.787 0 0 1 .396-.264.838.838 0 0 1 .487.051c.135.051.23.107.23.107v-.005Zm.558-.891s-.216.307-.572.35c-.343.051-.708-.192-.708-.192s.055-.09.154-.188a.83.83 0 0 1 .437-.213c.355-.038.689.239.689.239v.004Zm-.626-1.412a.865.865 0 0 0-.176.508c-.009.153.014.264.014.264s.121-.017.27-.068a.991.991 0 0 0 .446-.286c.252-.286.194-.746.194-.746s-.478.025-.748.332v-.004Z"/>
    <path fill="#939598" d="M16 13.893a10.401 10.401 0 0 0-2.325-.26c-4.99 0-9.117 3.493-9.806 8.036-1.464-1.293-2.383-3.14-2.383-5.187 0-3.933 3.365-7.115 7.514-7.115 3.184 0 5.91 1.877 6.995 4.53l.005-.004Z" style="mix-blend-mode:overlay"/>
    <path fill="#FED45C" d="M15.004 0 9.306 7.725H8.51L14.207 0h.797Z"/>
  </g>
  <defs>
    <clipPath id="a">
      <path fill="#fff" d="M0 0h18v25H0z"/>
    </clipPath>
  </defs>
</svg>
