<svg xmlns="http://www.w3.org/2000/svg" width="22" height="27" fill="none" viewBox="0 0 22 27">
  <g clip-path="url(#a)">
    <path fill="#1F3547" d="M11.22 6.183c-1.755 0-3.183-1.388-3.183-3.09C8.037 1.392 9.465 0 11.22 0s3.18 1.388 3.18 3.09c0 1.701-1.429 3.089-3.18 3.089v.004Zm0-5.366c-1.288 0-2.339 1.02-2.339 2.272 0 1.252 1.05 2.273 2.34 2.273 1.287 0 2.338-1.02 2.338-2.272 0-1.252-1.05-2.273-2.339-2.273ZM3.35 7.28s-.023.018-.034.03L1.654 8.493l.798 1.078a12.255 12.255 0 0 1 1.572-1.38l-.673-.912Z"/>
    <path fill="#1F3547" d="m3.596 6.8-.222-.266L.922 8.63l.148.178c.25.299.7.34 1.008.098L3.495 7.78a.683.683 0 0 0 .101-.98Z"/>
    <path fill="#F0C20C" d="M3.265 6.41a.73.73 0 0 0-1.008-.099L.84 7.438a.683.683 0 0 0-.1.98l.178.211L3.37 6.534l-.105-.128v.004Z"/>
    <path fill="#1F3547" d="M12.208 4.258h-1.992v1.6c.319-.06.642-.099.973-.102h.046c.331 0 .654.037.973.098V4.258Z"/>
    <path fill="#F0C20C" d="M13.178 3.135c0-.405-.316-.734-.705-.734h-2.436c-.39 0-.704.33-.704.734v.333h3.848v-.333h-.003Z"/>
    <path fill="#1F3547" d="M9.329 3.468v.151c0 .405.315.734.704.734h2.436c.39 0 .705-.33.705-.734v-.151h-3.85.005Z"/>
    <path fill="#2E6B7C" d="M22 16.31C22 22.213 17.077 27 10.998 27 4.92 27 0 22.213 0 16.31S4.923 5.62 11.002 5.62c6.079 0 11.002 4.783 11.002 10.69H22Z"/>
    <path fill="#1F3547" d="M20.984 16.31c0 5.358-4.468 9.7-9.982 9.7-5.515 0-9.986-4.342-9.986-9.7 0-5.359 4.471-9.7 9.986-9.7 5.514 0 9.982 4.341 9.982 9.7Z"/>
    <path fill="#DAE2EA" d="M20.295 16.31c0 4.988-4.16 9.034-9.293 9.034-5.133 0-9.301-4.046-9.301-9.034s4.09-8.962 9.16-9.03h.14c5.037 0 9.135 3.89 9.29 8.746 0 .095.004.193.004.288v-.004Z"/>
    <path fill="#F0C20C" d="M20.291 16.018h-9.43V7.28h.14c5.037 0 9.135 3.892 9.29 8.747v-.008Z"/>
    <path fill="#1F3547" d="M11.476 14.918c.199.053.366.155.51.28l1.541-6.463-.661-.17-1.981 6.35c.19-.038.385-.05.587 0l.004.003Zm-.412 4.103.393-1.713a1.285 1.285 0 0 1-.646.015 1.284 1.284 0 0 1-.553-.325l-.49 1.656 1.292.37.004-.003Z"/>
    <path fill="#1F3547" d="M9.908 15.8c-.124.45.039.892.354 1.198.152.147.331.268.553.325.222.057.44.038.646-.015.432-.11.798-.416.922-.866a1.207 1.207 0 0 0-.397-1.24 1.238 1.238 0 0 0-.51-.28 1.236 1.236 0 0 0-.587 0c-.066.015-.125.038-.187.06-.374.136-.685.42-.794.825v-.008Zm.413.105a.851.851 0 0 1 1.043-.586.824.824 0 0 1 .603 1.017.851.851 0 0 1-1.043.586.822.822 0 0 1-.603-1.013v-.004Z"/>
    <path fill="#fff" d="M10.928 16.922a.854.854 0 0 0 1.043-.586.83.83 0 0 0-.603-1.017.854.854 0 0 0-1.043.586.825.825 0 0 0 .603 1.014v.003Z"/>
    <path fill="#1F3547" d="M10.55 8.425v1.09c0 .147.113.253.253.294.031.008.055.034.086.034a.334.334 0 0 0 .338-.329V8.425a.334.334 0 0 0-.338-.329c-.035 0-.055.027-.086.034-.14.042-.253.148-.253.295Zm-3.28.828a.324.324 0 0 0-.436-.113l-.035.019a.305.305 0 0 0-.117.423l.58.976c.09.148.284.2.436.113l.035-.018a.305.305 0 0 0 .116-.424l-.58-.976ZM4.296 11.92a.343.343 0 0 0-.463.12.323.323 0 0 0 .125.45l.969.545c.16.09.37.038.463-.121a.323.323 0 0 0-.125-.45l-.969-.545Zm.234 4.072a.334.334 0 0 0-.339-.329h-1.12a.334.334 0 0 0-.34.33c0 .18.153.328.34.328h1.12a.334.334 0 0 0 .339-.329Zm.381 2.965-.969.544a.324.324 0 0 0-.124.45c.093.159.3.212.463.121l.969-.544a.324.324 0 0 0 .124-.45.344.344 0 0 0-.463-.121Zm2.779 2.382a.343.343 0 0 0-.463.12l-.56.942a.323.323 0 0 0 .124.45c.164.091.37.038.463-.12l.56-.942a.324.324 0 0 0-.124-.45Zm2.833 1.161v1.089c0 .159.125.276.28.306.024.004.036.023.059.023a.334.334 0 0 0 .339-.329v-1.09a.334.334 0 0 0-.339-.328c-.023 0-.035.019-.058.023-.156.03-.28.147-.28.306Zm3.947.246a.344.344 0 0 0 .462.12.324.324 0 0 0 .125-.45l-.56-.94a.344.344 0 0 0-.463-.122.327.327 0 0 0-.125.45l.56.942Zm2.985-2.651c.16.09.37.038.463-.121a.323.323 0 0 0-.125-.45l-.969-.545a.343.343 0 0 0-.463.121.323.323 0 0 0 .124.45l.97.545Zm-.235-4.073c0 .182.152.33.34.33h1.12a.334.334 0 0 0 .339-.33.334.334 0 0 0-.339-.329h-1.12a.334.334 0 0 0-.34.33Zm-.38-2.965.969-.544a.324.324 0 0 0 .124-.45.344.344 0 0 0-.463-.121l-.969.544a.324.324 0 0 0-.124.45.344.344 0 0 0 .463.121Zm-2.764-2.37c.152.087.35.034.436-.114l.58-.976a.305.305 0 0 0-.117-.423l-.035-.019a.323.323 0 0 0-.435.114l-.58.975a.305.305 0 0 0 .116.424l.035.019Z"/>
    <path fill="#D1CEBD" d="M11.002 7.276h-.14c-5.071.071-9.157 4.087-9.157 9.03 0 2.39.957 4.56 2.514 6.175l13.516-12.4a9.4 9.4 0 0 0-6.733-2.81v.005Z" style="mix-blend-mode:overlay"/>
  </g>
  <defs>
    <clipPath id="a">
      <path fill="#fff" d="M0 0h22v27H0z"/>
    </clipPath>
  </defs>
</svg>
